<?xml version="1.0" encoding="UTF-8"?>
<svg width="333px" height="142px" viewBox="0 0 333 142" version="1.1" xmlns="http://www.w3.org/2000/svg" xmlns:xlink="http://www.w3.org/1999/xlink">
    <!-- Generator: Sketch 52.6 (67491) - http://www.bohemiancoding.com/sketch -->
    <title>box</title>
    <desc>Created with Sketch.</desc>
    <g id="Home" stroke="none" stroke-width="1" fill="none" fill-rule="evenodd" opacity="0.400000006">
        <g id="m-home" transform="translate(-21.000000, -671.000000)" fill="#FFFFFF" stroke="#46425B">
            <g id="last-thought-v3" transform="translate(21.000000, 643.000000)">
                <path d="M36.9296513,150.705328 C57.6935537,154.285474 100.157905,156.358648 162.777595,157.535474 C176.654384,157.796263 191.204224,158.009075 208.072525,158.21022 C214.49391,158.286791 220.898399,158.357889 229.325631,158.447604 C231.623259,158.472065 239.53271,158.555635 239.359416,158.553799 C243.268147,158.5952 246.152442,158.626155 248.905028,158.656425 C283.616808,159.038145 297.758435,159.362271 301.46028,160.02601 C305.906242,160.823168 309.883667,162.29234 314.050841,164.447419 C315.605756,165.251552 320.527497,168.078513 321.469621,168.537295 C323.464285,169.508627 324.596401,169.634506 325.380743,168.947045 C326.924753,167.593751 326.764724,163.070316 325.29027,151.102463 C325.286837,151.0746 325.286837,151.0746 325.283405,151.046736 C324.422685,144.060311 324.130632,141.088623 324.130632,138.132469 C324.130632,136.383202 324.509878,134.491068 325.338387,131.725809 C325.53067,131.084039 327.36128,125.379728 327.94804,123.363009 C332.284822,108.457307 333.260601,92.64589 329.217711,69.4087622 C324.351176,41.4376153 282.127192,28.6160264 199.418025,28.6160264 C193.149679,28.6160264 188.161538,28.6018337 176.498604,28.5580096 C169.031135,28.5299503 165.563299,28.5183474 161.334275,28.5092709 C115.091584,28.4100232 87.6807034,29.2146443 64.1212682,32.0767851 C34.2214942,35.709188 16.5554705,42.5368177 11.831356,53.5206097 C4.16326011,71.3492992 -0.566047034,92.380877 0.708074295,109.583 C2.37439872,132.080322 13.8210961,146.720913 36.9296513,150.705328 Z" id="box" transform="translate(166.112817, 98.940452) scale(-1, 1) translate(-166.112817, -98.940452) "></path>
            </g>
        </g>
    </g>
</svg>