<?xml version="1.0" encoding="UTF-8"?>
<svg width="42px" height="42px" viewBox="0 0 42 42" version="1.1" xmlns="http://www.w3.org/2000/svg" xmlns:xlink="http://www.w3.org/1999/xlink">
    <!-- Generator: Sketch 52.6 (67491) - http://www.bohemiancoding.com/sketch -->
    <title>Group 8</title>
    <desc>Created with Sketch.</desc>
    <g id="Symbols" stroke="none" stroke-width="1" fill="none" fill-rule="evenodd">
        <g id="e-footer" transform="translate(-1078.000000, -233.000000)" fill="#46425B">
            <g id="rrss-icon" transform="translate(1006.000000, 233.000000)">
                <g id="Group-8" transform="translate(72.000000, 0.000000)">
                    <circle id="Oval" opacity="0.100000001" cx="21" cy="21" r="21"></circle>
                    <path d="M15.33,12.5192308 C15.33,13.6346538 14.4334615,14.5384615 13.3269231,14.5384615 C12.2203846,14.5384615 11.3238462,13.6346538 11.3238462,12.5192308 C11.3238462,11.4046154 12.2203846,10.5 13.3269231,10.5 C14.4334615,10.5 15.33,11.4046154 15.33,12.5192308 Z M15.3461538,16.1538462 L11.3076923,16.1538462 L11.3076923,29.0769231 L15.3461538,29.0769231 L15.3461538,16.1538462 Z M21.7931538,16.1538462 L17.7805385,16.1538462 L17.7805385,29.0769231 L21.7939615,29.0769231 L21.7939615,22.2931154 C21.7939615,18.5211923 26.6635385,18.2126538 26.6635385,22.2931154 L26.6635385,29.0769231 L30.6923077,29.0769231 L30.6923077,20.8941923 C30.6923077,14.5295769 23.4860769,14.7613846 21.7931538,17.8944231 L21.7931538,16.1538462 Z" id="Shape" fill-rule="nonzero" opacity="0.5"></path>
                </g>
            </g>
        </g>
    </g>
</svg>