<?xml version="1.0" encoding="UTF-8"?>
<svg width="42px" height="42px" viewBox="0 0 42 42" version="1.1" xmlns="http://www.w3.org/2000/svg" xmlns:xlink="http://www.w3.org/1999/xlink">
    <!-- Generator: Sketch 52.6 (67491) - http://www.bohemiancoding.com/sketch -->
    <title>Group 10</title>
    <desc>Created with Sketch.</desc>
    <g id="Symbols" stroke="none" stroke-width="1" fill="none" fill-rule="evenodd">
        <g id="e-footer" transform="translate(-1222.000000, -233.000000)" fill="#46425B">
            <g id="rrss-icon" transform="translate(1006.000000, 233.000000)">
                <g id="Group-10" transform="translate(216.000000, 0.000000)">
                    <circle id="Oval" opacity="0.100000001" cx="21" cy="21" r="21"></circle>
                    <path d="M25.6488257,20.135076 L21.5403964,24.0016814 C21.3290018,24.2433443 20.9966952,24.334149 20.7550324,24.334149 C20.4529941,24.334149 20.1509558,24.2433443 19.909293,24.0016814 L15.8612391,20.135076 C15.4382889,19.6820185 15.3779135,18.9267618 15.8612391,18.4434361 C16.3142966,18.0204859 17.0695533,17.9601104 17.5227718,18.4434361 L20.7550324,21.5547848 L24.0478295,18.4434361 C24.4707797,17.9601104 25.2258754,18.0204859 25.6488257,18.4434361 C26.0717759,18.9267618 26.0717759,19.6820185 25.6488257,20.135076 M27.7333085,13.7307692 L13.7769173,13.7307692 C12.8706414,13.7307692 12.1153846,14.4256505 12.1153846,15.3319264 L12.1153846,20.4974898 C12.1153846,25.1798884 15.9819901,29.0769231 20.7550324,29.0769231 C25.4978065,29.0769231 29.3343047,25.1798884 29.3343047,20.4974898 L29.3343047,15.3319264 C29.3343047,14.4256505 28.6093162,13.7307692 27.7333085,13.7307692" id="Shape" fill-rule="nonzero" opacity="0.5"></path>
                </g>
            </g>
        </g>
    </g>
</svg>