<?xml version="1.0" encoding="UTF-8"?>
<svg width="37px" height="37px" viewBox="0 0 37 37" version="1.1" xmlns="http://www.w3.org/2000/svg" xmlns:xlink="http://www.w3.org/1999/xlink">
    <!-- Generator: Sketch 52.6 (67491) - http://www.bohemiancoding.com/sketch -->
    <title>icon-dis</title>
    <desc>Created with Sketch.</desc>
    <g id="Home" stroke="none" stroke-width="1" fill="none" fill-rule="evenodd">
        <g id="m-home" transform="translate(-30.000000, -939.000000)">
            <g id="what-I-do" transform="translate(0.000000, 939.000000)">
                <g id="discover" transform="translate(28.000000, 0.000000)">
                    <g id="icon-dis">
                        <g id="icon-1">
                            <rect id="square" fill="#66ECD1" x="2" y="0" width="18" height="18"></rect>
                            <polyline id="triangle-2" stroke="#0000CC" stroke-width="2" points="24 35.4622892 37.1821961 35.4622892 37.1821961 22"></polyline>
                            <path d="M7.3128676,18.8602549 L12.7889317,38.7794665" id="triangle" stroke="#0000CC" stroke-width="2" transform="translate(10.050900, 28.819861) scale(-1, 1) rotate(-300.000000) translate(-10.050900, -28.819861) "></path>
                            <path d="M25,1 C30.7989899,1 35.5,5.76369026 35.5,11.64 M25,22.28 C30.7989899,22.28 35.5,17.5163097 35.5,11.64" id="circle-2" stroke="#0000CC" stroke-width="2"></path>
                            <path d="M14.5,9 C20.2989899,9 25,13.7636903 25,19.64 M14.5,30.28 C20.2989899,30.28 25,25.5163097 25,19.64" id="circle" stroke="#0000CC" stroke-width="2" transform="translate(19.750000, 19.640000) scale(-1, 1) translate(-19.750000, -19.640000) "></path>
                        </g>
                    </g>
                </g>
            </g>
        </g>
    </g>
</svg>