<?xml version="1.0" encoding="UTF-8"?>
<svg width="42px" height="42px" viewBox="0 0 42 42" version="1.1" xmlns="http://www.w3.org/2000/svg" xmlns:xlink="http://www.w3.org/1999/xlink">
    <!-- Generator: Sketch 52.6 (67491) - http://www.bohemiancoding.com/sketch -->
    <title>Group 9</title>
    <desc>Created with Sketch.</desc>
    <g id="Symbols" stroke="none" stroke-width="1" fill="none" fill-rule="evenodd">
        <g id="e-footer" transform="translate(-1150.000000, -233.000000)" fill="#46425B">
            <g id="rrss-icon" transform="translate(1006.000000, 233.000000)">
                <g id="Group-9" transform="translate(144.000000, 0.000000)">
                    <circle id="Oval" opacity="0.100000001" cx="21" cy="21" r="21"></circle>
                    <path d="M13.6063846,16.8702692 C13.6306154,16.632 13.5393462,16.3969615 13.3616538,16.2370385 L11.5524231,14.0562692 L11.5524231,13.7307692 L17.1723462,13.7307692 L21.5161154,23.2575 L25.3348846,13.7307692 L30.6923077,13.7307692 L30.6923077,14.0562692 L29.1447692,15.54 C29.0115,15.6417692 28.9452692,15.8089615 28.9727308,15.9745385 L28.9727308,26.8767692 C28.9452692,27.0415385 29.0115,27.2087308 29.1447692,27.3105 L30.6559615,28.7942308 L30.6559615,29.1197308 L23.0539615,29.1197308 L23.0539615,28.7942308 L24.6200769,27.2741538 C24.7735385,27.1206923 24.7735385,27.0754615 24.7735385,26.8404231 L24.7735385,18.0285 L20.4208846,29.0841923 L19.8328846,29.0841923 L14.7646154,18.0285 L14.7646154,25.4382692 C14.7226154,25.7492308 14.826,26.0634231 15.0448846,26.2879615 L17.0810769,28.7578846 L17.0810769,29.0841923 L11.3076923,29.0841923 L11.3076923,28.7578846 L13.3438846,26.2879615 C13.5619615,26.0626154 13.6588846,25.7468077 13.6063846,25.4382692 L13.6063846,16.8702692 Z" id="Path" opacity="0.5"></path>
                </g>
            </g>
        </g>
    </g>
</svg>