<?xml version="1.0" encoding="UTF-8"?>
<svg width="42px" height="42px" viewBox="0 0 42 42" version="1.1" xmlns="http://www.w3.org/2000/svg" xmlns:xlink="http://www.w3.org/1999/xlink">
    <!-- Generator: Sketch 52.6 (67491) - http://www.bohemiancoding.com/sketch -->
    <title>Group 7</title>
    <desc>Created with Sketch.</desc>
    <g id="Symbols" stroke="none" stroke-width="1" fill="none" fill-rule="evenodd">
        <g id="e-footer" transform="translate(-1006.000000, -233.000000)" fill="#46425B">
            <g id="rrss-icon" transform="translate(1006.000000, 233.000000)">
                <g id="Group-7">
                    <circle id="Oval" opacity="0.100000001" cx="21" cy="21" r="21"></circle>
                    <path d="M30.6923077,15.5957308 C29.9791154,15.9123462 29.2126154,16.1255769 28.4081538,16.2216923 C29.2295769,15.7298077 29.8603846,14.9503846 30.1568077,14.0215385 C29.3886923,14.4770769 28.5373846,14.8082308 27.6311538,14.9867308 C26.9066538,14.2137692 25.872,13.7307692 24.7283077,13.7307692 C22.1606538,13.7307692 20.2738846,16.1263846 20.8538077,18.6132692 C17.5495385,18.4476923 14.6192308,16.8646154 12.6573462,14.4585 C11.6154231,16.2459231 12.117,18.5841923 13.8874615,19.7682692 C13.2364615,19.7472692 12.6226154,19.5687692 12.0871154,19.2707308 C12.0435,21.1130769 13.3640769,22.8366923 15.2766923,23.2203462 C14.7169615,23.3721923 14.1039231,23.4077308 13.4803846,23.2881923 C13.986,24.8680385 15.4543846,26.0173846 17.1957692,26.0496923 C15.5238462,27.3605769 13.4173846,27.9461538 11.3076923,27.6973846 C13.0676538,28.8257308 15.1587692,29.484 17.4041538,29.484 C24.7880769,29.484 28.9598077,23.2478077 28.7078077,17.6545385 C29.4848077,17.0931923 30.1592308,16.3929231 30.6923077,15.5957308 Z" id="Path" opacity="0.5"></path>
                </g>
            </g>
        </g>
    </g>
</svg>