<?xml version="1.0" standalone="no"?>
<!DOCTYPE svg PUBLIC "-//W3C//DTD SVG 20010904//EN"
 "http://www.w3.org/TR/2001/REC-SVG-20010904/DTD/svg10.dtd">
<svg version="1.0" xmlns="http://www.w3.org/2000/svg"
 width="500.000000pt" height="500.000000pt" viewBox="0 0 500.000000 500.000000"
 preserveAspectRatio="xMidYMid meet">
<metadata>
Created by potrace 1.11, written by Peter Selinger 2001-2013
</metadata>
<g transform="translate(0.000000,500.000000) scale(0.100000,-0.100000)"
fill="#000000" stroke="none">
<path d="M1030 2575 l0 -955 140 0 140 0 0 410 0 410 378 2 377 3 3 123 3 122
-381 0 -380 0 0 295 0 295 495 0 495 0 0 125 0 125 -635 0 -635 0 0 -955z"/>
<path d="M2459 3483 c10 -27 163 -456 341 -956 l324 -907 159 2 160 3 303 855
c167 470 319 899 339 953 l34 97 -147 0 -147 0 -264 -791 c-145 -435 -267
-787 -271 -782 -5 4 -129 359 -277 788 l-270 780 -151 3 -152 3 19 -48z"/>
</g>
</svg>
